<?xml version="1.0" standalone="no"?>
<!DOCTYPE svg PUBLIC "-//W3C//DTD SVG 20010904//EN"
 "http://www.w3.org/TR/2001/REC-SVG-20010904/DTD/svg10.dtd">
<svg version="1.0" xmlns="http://www.w3.org/2000/svg"
 width="1024.000000pt" height="1024.000000pt" viewBox="0 0 1024.000000 1024.000000"
 preserveAspectRatio="xMidYMid meet">

<g transform="translate(0.000000,1024.000000) scale(0.100000,-0.100000)"
fill="#000000" stroke="none">
<path d="M0 5120 l0 -5120 5120 0 5120 0 0 5120 0 5120 -5120 0 -5120 0 0
-5120z m5243 3836 c54 -20 429 -232 717 -406 25 -15 149 -88 275 -162 127 -74
399 -234 605 -355 331 -195 525 -308 1203 -705 93 -54 187 -108 210 -119 68
-34 123 -85 148 -136 l24 -48 0 -1845 c0 -1780 -1 -1846 -19 -1880 -29 -55
-85 -108 -161 -152 -38 -23 -164 -96 -280 -163 -115 -67 -403 -235 -640 -372
-236 -138 -558 -324 -715 -415 -157 -90 -377 -219 -490 -285 -113 -66 -281
-164 -375 -218 -548 -318 -522 -305 -624 -305 -46 0 -87 7 -118 19 -26 10
-165 87 -308 171 -143 84 -465 272 -715 417 -250 146 -518 302 -595 348 -77
45 -228 133 -335 195 -107 62 -298 174 -425 248 -126 74 -327 191 -445 260
-255 148 -269 158 -312 225 l-33 52 -3 1834 c-2 2027 -6 1897 61 1976 21 24
73 61 133 94 188 104 854 489 1149 666 39 23 129 75 200 115 135 75 284 162
635 367 113 66 282 164 375 218 94 54 271 158 395 231 124 73 241 137 260 142
60 17 131 13 203 -12z"/>
<path d="M4735 8384 c-559 -327 -767 -448 -1145 -666 -190 -110 -397 -231
-460 -268 -63 -37 -180 -105 -260 -150 -80 -46 -199 -115 -265 -155 -66 -39
-177 -103 -246 -143 -69 -39 -136 -83 -150 -98 l-24 -26 -3 -1672 -2 -1671 22
-45 c16 -31 40 -56 78 -82 49 -32 369 -221 1000 -588 107 -62 281 -164 385
-225 267 -158 1069 -625 1135 -662 30 -17 107 -61 169 -97 74 -42 126 -66 146
-66 52 0 128 41 725 390 129 75 312 181 405 235 682 394 1253 728 1565 915
178 107 229 142 245 170 20 35 20 44 20 1700 0 1863 7 1702 -75 1753 -87 54
-320 192 -845 500 -536 314 -1338 785 -1540 905 -60 36 -173 101 -250 145 -77
44 -152 88 -167 98 -54 39 -70 32 -463 -197z m-845 -1768 c262 -42 438 -158
530 -348 48 -99 64 -191 57 -328 -12 -239 -111 -401 -312 -507 l-69 -36 52
-18 c148 -50 297 -173 351 -290 47 -100 61 -170 61 -299 0 -425 -237 -675
-696 -735 -89 -12 -223 -15 -590 -15 l-474 0 0 1301 0 1302 498 -6 c375 -4
520 -9 592 -21z m1400 -1041 l0 -1065 290 0 289 0 1 -235 0 -235 -540 0 -540
0 0 1300 0 1300 250 0 250 0 0 -1065z m1675 370 c253 -68 428 -254 502 -531
23 -89 26 -121 31 -326 l4 -228 -527 0 -527 0 7 -57 c18 -148 82 -271 169
-329 165 -109 440 -75 591 74 25 25 50 41 54 36 4 -5 56 -62 115 -127 l108
-118 -39 -47 c-79 -94 -214 -187 -333 -231 -126 -46 -181 -55 -330 -55 -171
-1 -230 12 -365 78 -331 164 -492 520 -455 1009 22 287 108 494 272 653 119
116 226 176 373 210 76 17 267 12 350 -11z"/>
<path d="M3302 5868 l3 -333 155 1 c269 2 382 51 449 194 22 47 26 69 26 150
0 120 -19 174 -82 229 -75 67 -190 91 -431 91 l-122 0 2 -332z"/>
<path d="M3300 4822 c0 -193 3 -353 8 -355 4 -3 108 -1 232 3 256 8 302 19
382 89 112 99 149 295 82 437 -27 57 -107 121 -182 145 -58 19 -96 23 -294 27
l-228 4 0 -350z"/>
<path d="M6645 5537 c-65 -31 -117 -90 -144 -163 -23 -61 -41 -140 -41 -180
l0 -24 296 0 297 0 -7 69 c-8 95 -39 189 -77 234 -47 57 -100 80 -194 84 -69
3 -87 1 -130 -20z"/>
</g>
</svg>
